<svg xmlns="http://www.w3.org/2000/svg" viewBox="0 0 82.78 33.4"><defs><style>.cls-1{isolation:isolate;}.cls-2{fill:#5ebc64;}</style></defs><title>Asset 1</title><g id="Layer_2" data-name="Layer 2"><g id="Layer_1-2" data-name="Layer 1"><g class="cls-1"><path class="cls-2" d="M22.85,0q0,3.51-3.51,3.69Q3.51,5.36,3.52,22.85q11.82,0,16.41-7.24a3.51,3.51,0,0,1,3.19-1.86,6.45,6.45,0,0,1,1.65.24,18.79,18.79,0,0,1-1.3,2.9q-5.25,9.48-19.95,9.48H0V22.85Q0,0,22.85,0Z"/><path class="cls-2" d="M26.53,14.06V10.55H30q12.3,0,12.31,12.3v5.27q-3.52,0-3.52-3.51V22.85q0-8.79-8.79-8.79,0,6.34,4.59,8.11,2.44.57,2.44,4.13a15.74,15.74,0,0,1-3.51-.67Q26.53,23.37,26.53,14.06Z"/><path class="cls-2" d="M47.62,1.76V22.83q0,3.54-3.52,3.54V5.26C44.1,2.92,45.28,1.76,47.62,1.76Z"/><path class="cls-2" d="M49.38,14.06V10.55q3.51,0,3.51,3.51,0,6.34,4.59,8.11,2.45.57,2.44,4.13a15.74,15.74,0,0,1-3.51-.67Q49.38,23.37,49.38,14.06ZM65.2,10.55v12.3q0,10.54-10.55,10.55H51.13c0-2.35,1.18-3.52,3.52-3.52q7,0,7-7V14.06Q61.68,10.55,65.2,10.55Z"/><path class="cls-2" d="M67,10.55q7,0,7,7Q67,17.58,67,10.55Zm7,8.79q0,7-7,7Q67,19.34,74,19.34Zm8.79-8.79q0,7-7,7Q75.74,10.55,82.78,10.55Zm-7,8.79q7,0,7,7Q75.75,26.37,75.74,19.34Z"/></g></g></g></svg>